<?xml version="1.0" encoding="UTF-8" standalone="no"?>
<!-- Created with Inkscape (http://www.inkscape.org/) -->

<svg
   xmlns:dc="http://purl.org/dc/elements/1.1/"
   xmlns:cc="http://creativecommons.org/ns#"
   xmlns:rdf="http://www.w3.org/1999/02/22-rdf-syntax-ns#"
   xmlns:svg="http://www.w3.org/2000/svg"
   xmlns="http://www.w3.org/2000/svg"
   xmlns:xlink="http://www.w3.org/1999/xlink"
   xmlns:sodipodi="http://sodipodi.sourceforge.net/DTD/sodipodi-0.dtd"
   xmlns:inkscape="http://www.inkscape.org/namespaces/inkscape"
   width="210mm"
   height="297mm"
   viewBox="0 0 210 297"
   version="1.1"
   id="svg8"
   inkscape:version="0.92.3 (2405546, 2018-03-11)"
   sodipodi:docname="logo.svg">
  <defs
     id="defs2">
    <linearGradient
       inkscape:collect="always"
       id="linearGradient6056">
      <stop
         style="stop-color:#040706;stop-opacity:1;"
         offset="0"
         id="stop6052" />
      <stop
         style="stop-color:#040706;stop-opacity:0;"
         offset="1"
         id="stop6054" />
    </linearGradient>
    <radialGradient
       inkscape:collect="always"
       xlink:href="#linearGradient6056"
       id="radialGradient6058"
       cx="106.58929"
       cy="158.66071"
       fx="106.58929"
       fy="158.66071"
       r="98.273804"
       gradientTransform="matrix(1,0,0,0.97692312,0,3.6613941)"
       gradientUnits="userSpaceOnUse" />
  </defs>
  <sodipodi:namedview
     id="base"
     pagecolor="#ffffff"
     bordercolor="#666666"
     borderopacity="1.0"
     inkscape:pageopacity="0.0"
     inkscape:pageshadow="2"
     inkscape:zoom="0.35"
     inkscape:cx="400"
     inkscape:cy="560"
     inkscape:document-units="mm"
     inkscape:current-layer="layer1"
     showgrid="false"
     inkscape:window-width="1366"
     inkscape:window-height="712"
     inkscape:window-x="0"
     inkscape:window-y="0"
     inkscape:window-maximized="1" />
  <metadata
     id="metadata5">
    <rdf:RDF>
      <cc:Work
         rdf:about="">
        <dc:format>image/svg+xml</dc:format>
        <dc:type
           rdf:resource="http://purl.org/dc/dcmitype/StillImage" />
        <dc:title></dc:title>
      </cc:Work>
    </rdf:RDF>
  </metadata>
  <g
     inkscape:label="Layer 1"
     inkscape:groupmode="layer"
     id="layer1">
    <ellipse
       style="fill:url(#radialGradient6058);stroke-width:0.26458332;fill-opacity:1"
       id="path12"
       cx="106.58929"
       cy="158.66071"
       rx="98.273804"
       ry="96.005951" />
    <path
       style="fill:none;stroke:#006e00;stroke-width:8.665;stroke-linecap:round;stroke-linejoin:bevel;stroke-opacity:1;stroke-miterlimit:4;stroke-dasharray:none"
       d="m 33.261905,104.23214 c 2.150415,0.17369 2.297216,2.7914 3.779761,3.77976 0.468821,0.31255 1.043083,0.44341 1.511906,0.75595 0.296508,0.19768 0.41788,0.64327 0.755952,0.75596 0.478104,0.15937 1.033798,-0.15937 1.511903,0 1.069078,0.35636 1.977504,1.09338 3.023812,1.5119 0.23396,0.0936 0.51149,-0.0611 0.755951,0 0.773052,0.19327 1.479021,0.64327 2.267858,0.75596 0.997804,0.14254 2.015871,0 3.023809,0 0.503968,0 1.017722,-0.0988 1.511903,0 0.78137,0.15627 1.486487,0.59967 2.267858,0.75595 0.741272,0.14825 1.550699,-0.23906 2.267857,0 0.53454,0.17818 0.977366,0.57777 1.511906,0.75595 0.239054,0.0797 0.546288,-0.13978 0.755952,0 0.593018,0.39535 0.874429,1.19317 1.511905,1.51191 0.901526,0.45076 2.067597,-0.31874 3.02381,0 0.338071,0.11268 0.410231,0.66952 0.755951,0.75595 0.733383,0.18334 1.526585,-0.14826 2.267858,0 0.552511,0.1105 0.956117,0.66332 1.511903,0.75595 0.994225,0.1657 2.015874,0 3.023812,0 2.015871,0 4.031744,0 6.047618,0 0.496742,0 1.841349,-0.14217 2.267857,0 2.944001,0.98133 0.07072,0.75595 3.023809,0.75595 1.511904,0 3.02381,0 4.535715,0 0.503968,0 1.061141,-0.22538 1.511904,0 0.637476,0.31874 0.850162,1.24721 1.511906,1.51191 0.429566,0.17182 4.488471,0 5.291666,0 1.763887,0 3.527777,0 5.291667,0 0.866826,0 2.240726,0.19577 3.023806,0 0.54663,-0.13666 0.97737,-0.57778 1.51191,-0.75596 0.71716,-0.23905 1.53447,0.18335 2.26785,0 0.54664,-0.13665 0.97737,-0.57777 1.51191,-0.75595 0.23905,-0.0797 0.51149,0.0611 0.75595,0 0.77305,-0.19326 1.49481,-0.56269 2.26786,-0.75595 1.79189,-0.44797 -0.33598,1.34392 3.02381,0 1.23063,-1.23063 1.41177,-1.73051 3.02381,-2.26786 0.64759,-0.21586 2.35689,0.16673 3.02381,0 0.54663,-0.13666 0.97736,-0.57777 1.5119,-0.75595 0.23906,-0.0797 0.53057,0.11269 0.75595,0 0.31874,-0.15937 0.43722,-0.59658 0.75596,-0.75595 0.22538,-0.11269 0.50397,0 0.75595,0 1.12517,0 0.96489,0.11269 2.26786,-0.75595 0.59301,-0.39535 0.83576,-1.28653 1.5119,-1.51191 0.47811,-0.15937 1.0338,0.15937 1.51191,0 0.33807,-0.11269 0.43721,-0.59658 0.75595,-0.75595 0.22538,-0.11269 0.51149,0.0611 0.75595,0 0.77305,-0.19327 1.4948,-0.56269 2.26786,-0.75596 0.24446,-0.0611 0.54629,0.13978 0.75595,0 0.59302,-0.39534 0.87443,-1.19316 1.5119,-1.5119 0.45077,-0.22538 1.0338,0.15937 1.51191,0 0.33807,-0.11269 0.43721,-0.59658 0.75595,-0.75595 0.45076,-0.22538 1.02299,0.12223 1.51191,0 0.77305,-0.19326 1.4948,-0.56269 2.26785,-0.75595 0.48892,-0.12223 1.0338,0.15936 1.51191,0 4.28299,-2.1415 -1.12691,0.28172 3.02381,-0.75596 1.09326,-0.27331 1.95473,-1.15554 3.02381,-1.5119 0.4781,-0.15937 1.00793,0 1.5119,0 1.25992,0 2.51984,0 3.77976,0 0.50397,0 1.00794,0 1.51191,0 0.25198,0 0.53057,0.11269 0.75595,0 0.31874,-0.15937 0.43722,-0.59658 0.75595,-0.75595 0.22984,-0.11492 2.50181,0 3.02381,0 2.51985,0 5.03968,0 7.55953,0 1.5119,0 3.02381,0 4.53571,0 0.25198,0 0.50397,0 0.75595,0 0.25199,0 0.53057,-0.11269 0.75596,0 0.40374,0.20187 1.86987,1.86987 2.26785,2.26785"
       id="path4558"
       inkscape:connector-curvature="0" />
    <path
       style="fill:none;stroke:#006e00;stroke-width:8.665;stroke-linecap:round;stroke-linejoin:bevel;stroke-opacity:1;stroke-miterlimit:4;stroke-dasharray:none"
       d="m 68.035714,115.57143 c 0.914554,2.50572 0.755952,4.98882 0.755952,7.55952 0,0.50397 -0.159369,1.0338 0,1.5119 0.112691,0.33808 0.596582,0.43722 0.755951,0.75596 0.225383,0.45076 -0.122229,1.02298 0,1.5119 0.193265,0.77305 0.34598,1.58457 0.755955,2.26786 1.845947,3.07658 1.24406,-0.0476 2.267855,3.02381 0.159369,0.47811 -0.159367,1.0338 0,1.5119 0.178181,0.53454 0.577773,0.97737 0.755954,1.51191 0.159369,0.47811 -0.159369,1.0338 0,1.5119 0.861645,2.58494 0.627012,0.56255 2.267857,3.02381 0.139774,0.20967 -0.07968,0.5169 0,0.75595 0.35636,1.06908 1.007936,2.01588 1.511904,3.02382 0.503967,1.00793 1.007938,2.01587 1.511905,3.02381 0.251984,0.50396 0.443405,1.04308 0.755952,1.5119 0.197673,0.29651 0.596582,0.43721 0.755952,0.75595 0.112691,0.22538 -0.06111,0.51149 0,0.75595 0.193265,0.77306 0.562689,1.49481 0.755954,2.26786 0.122229,0.48892 -0.159369,1.0338 0,1.51191 0.178178,0.53454 0.57777,0.97736 0.755951,1.5119 0.163264,0.4898 0,3.16086 0,3.77976 0,2.01588 0,4.03175 0,6.04762 0,1.76389 0,3.52778 0,5.29167 0,0.50397 0.12223,1.02298 0,1.5119 -0.136657,0.54663 -0.577773,0.97737 -0.755951,1.51191 -0.952889,2.85866 3.575457,-3.75934 -1.511906,3.02381 -0.213815,0.28508 -0.596582,0.43721 -0.755952,0.75595 -0.112691,0.22538 0.07969,0.5169 0,0.75595 -0.178181,0.53454 -0.546692,0.98875 -0.755954,1.51191 -1.767927,0.39341 -0.461134,2.13936 -0.755951,3.02381 -0.550799,1.65239 -1.84357,2.59952 -3.02381,3.77976 -0.251983,0.25198 -0.558278,0.45944 -0.755951,0.75595 -0.31255,0.46882 -0.357532,1.11348 -0.755954,1.5119 -0.398421,0.39843 -1.043083,0.44341 -1.511904,0.75596 -1.039966,0.69331 -0.77748,1.16622 -1.511906,2.26786 -0.197672,0.2965 -0.503967,0.50396 -0.755951,0.75595 -0.940496,0.94049 -2.175955,1.96399 -3.023809,3.02381 -0.787067,0.98383 -1.480791,2.03997 -2.267858,3.02381 -0.222615,0.27827 -0.596582,0.43721 -0.755951,0.75595 -0.712719,1.42543 -0.799188,3.11027 -1.511906,4.53571 -0.159369,0.31874 -0.643261,0.41788 -0.755952,0.75595 -0.312952,0.93886 0.248484,2.78583 0,3.77977 -0.136657,0.54663 -0.577773,0.97736 -0.755952,1.5119 -0.07968,0.23905 0,0.50397 0,0.75595 0,0.50397 0,1.00794 0,1.51191 0,1.5119 0,3.02381 0,4.53571 0,1.51191 0,3.02381 0,4.53572 0,0.75595 -0.239053,1.55069 0,2.26786 0.112689,0.33807 0.558279,0.45944 0.755952,0.75595 0.312547,0.46882 0.503968,1.00793 0.755952,1.5119 0.251984,0.50397 0.577773,0.97737 0.755951,1.51191 0.159369,0.4781 -0.356359,1.15554 0,1.5119 0.868643,0.86864 1.336921,0.75595 2.267858,0.75595 0.251984,0 0.54629,0.13978 0.755954,0 0.593016,-0.39534 1.007936,-1.00793 1.511903,-1.5119 0.251984,-0.25199 0.503968,-0.50397 0.755952,-0.75595 0.251986,-0.25199 0.596585,-0.43722 0.755954,-0.75596 0.35636,-0.71271 0.503968,-1.5119 0.755952,-2.26785"
       id="path4560"
       inkscape:connector-curvature="0" />
    <path
       style="fill:none;stroke:#006e00;stroke-width:8.665;stroke-linecap:round;stroke-linejoin:bevel;stroke-opacity:1;stroke-miterlimit:4;stroke-dasharray:none"
       d="m 142.875,105.74405 c 0,1.5119 -0.21382,3.039 0,4.53571 0.10079,0.70556 1.19317,0.87443 1.5119,1.51191 0.11269,0.22538 -0.0797,0.51689 0,0.75595 0.17818,0.53454 0.57777,0.97736 0.75596,1.5119 0.22678,0.68036 -0.22679,1.5875 0,2.26786 0.17817,0.53454 0.4434,1.04308 0.75595,1.5119 0.19767,0.29651 0.64326,0.41789 0.75595,0.75596 0.11479,0.34438 0,4.77972 0,5.29166 0,1.51191 0,3.02381 0,4.53572 0,0.75595 0,1.5119 0,2.26786 0,0.25198 0.0494,0.50886 0,0.75595 -0.20376,1.01878 -0.42741,2.03816 -0.75595,3.02381 -0.35636,1.06907 -1.15555,1.95473 -1.51191,3.02381 -0.0797,0.23905 0.11269,0.53057 0,0.75595 -0.40631,0.81262 -1.04446,1.48879 -1.5119,2.26785 -0.2899,0.48316 -0.44341,1.04309 -0.75595,1.51191 -0.19768,0.29651 -0.59659,0.43721 -0.75596,0.75595 -0.11269,0.22538 0.0797,0.5169 0,0.75596 -0.56574,1.69721 -1.40527,2.05459 -2.26785,3.77976 -0.35636,0.71272 -0.3996,1.55514 -0.75596,2.26785 -0.15937,0.31874 -0.6236,0.42508 -0.75595,0.75596 -0.38586,0.96464 -0.55219,2.00502 -0.75595,3.02381 -0.0494,0.24709 0.13977,0.54629 0,0.75595 -1.20488,1.80732 -1.75087,0.95586 -2.26786,3.02381 -0.24446,0.97784 0.24446,2.04597 0,3.02381 -0.13665,0.54663 -0.64545,0.95939 -0.75595,1.5119 -0.19847,0.99233 0,3.33383 0,4.53572 0,3.52777 0,7.05555 0,10.58333 0,3.27579 0,6.55159 0,9.82738 0,0.87817 -0.17133,3.09446 0,3.77976 -0.45564,1.36823 1.2246,1.40594 1.5119,2.26786 0.15937,0.47811 0,1.00793 0,1.5119 0,0.25199 -0.11269,0.53057 0,0.75596 0.15937,0.31873 0.59659,0.43721 0.75596,0.75595 0.23756,0.47513 -0.23757,2.54868 0,3.02381 0.15936,0.31874 0.59658,0.43721 0.75595,0.75595 0.12045,0.2409 0,3.10415 0,3.77976 0,2.51984 0,5.03968 0,7.55953 0,0.60321 0.15117,3.32623 0,3.77976 -1.82523,5.47568 0.21794,-1.19184 -1.51191,2.26785 -0.11269,0.22539 0.1127,0.53058 0,0.75596 -2.50717,2.50718 0.35636,-0.71272 -0.75595,1.5119 -0.15937,0.31874 -0.59658,0.43722 -0.75595,0.75595 -0.11269,0.22539 0,0.50397 0,0.75596 0,1.11231 -0.17818,0.57777 0.75595,1.5119"
       id="path4562"
       inkscape:connector-curvature="0" />
  </g>
</svg>
